<?xml version="1.0" encoding="UTF-8"?>
<!DOCTYPE svg PUBLIC "-//W3C//DTD SVG 1.1//EN" "http://www.w3.org/Graphics/SVG/1.1/DTD/svg11.dtd">
<!-- Creator: CorelDRAW 2017 -->
<svg xmlns="http://www.w3.org/2000/svg" xml:space="preserve" width="420mm" height="297mm" version="1.1" style="shape-rendering:geometricPrecision; text-rendering:geometricPrecision; image-rendering:optimizeQuality; fill-rule:evenodd; clip-rule:evenodd"
viewBox="0 0 42000 29700"
 xmlns:xlink="http://www.w3.org/1999/xlink">
 <defs>
  <style type="text/css">
   <![CDATA[
    .fil4 {fill:none}
    .fil0 {fill:#1E6823}
    .fil3 {fill:#44A340}
    .fil2 {fill:#8CC665}
    .fil1 {fill:#D6E685}
    .fil5 {fill:#44A340;fill-rule:nonzero}
   ]]>
  </style>
 </defs>
 <g id="Layer_x0020_1">
  <metadata id="CorelCorpID_0Corel-Layer"/>
  <path class="fil0" d="M9279 17590l2364 0 0 2735 -2735 0 0 -2364 215 215c-39,89 -61,187 -61,290 0,399 323,722 722,722 399,0 722,-323 722,-722 0,-399 -323,-722 -722,-722 -103,0 -201,22 -290,61l-215 -215z"/>
  <g id="_833244840">
   <path class="fil1" d="M2441 10753l6 0 2357 0 0 2364 -423 -423 -1937 -1937 -3 -3zm1992 2735l-2364 0 0 -2364 1015 1015 1349 1349zm-2364 -2364l0 0z"/>
   <g>
    <path class="fil1" d="M2441 10753l6 0 2357 0 0 2364 0 -2364 0 2364 0 -2364 -2364 0zm1992 2735l-2364 0 2364 0zm-2364 0l0 -2364 0 2364zm0 -2364l0 0z"/>
   </g>
  </g>
  <rect class="fil1" x="5489" y="10753" width="2735" height="2735"/>
  <rect class="fil0" x="8908" y="10753" width="2735" height="2735"/>
  <rect class="fil2" x="2070" y="14171" width="2735" height="2735"/>
  <path class="fil2" d="M5860 14171l2364 0 0 2364 -706 -706c39,-89 61,-187 61,-290 0,-399 -323,-722 -722,-722 -103,0 -201,22 -290,61l-337 -337 -370 -370zm1992 2735l-734 0 0 -695c9,-4 18,-7 27,-11l706 706zm-1259 0l-1105 0 0 -2364 370 370 337 337c-39,89 -61,187 -61,290 0,306 191,568 460,673l0 695z"/>
  <rect class="fil1" x="8908" y="14171" width="2735" height="2735"/>
  <rect class="fil1" x="2070" y="17590" width="2735" height="2735"/>
  <path class="fil3" d="M5489 17590l1105 0 0 1198c-269,105 -460,367 -460,673 0,399 323,722 722,722 399,0 722,-323 722,-722 0,-306 -191,-568 -460,-673l0 -1198 1105 0 0 2735 -2735 0 0 -2735z"/>
  <path class="fil4" d="M2070 11124l1015 1015 1349 1349 1055 1055 370 370 337 337c-39,89 -61,187 -61,290 0,306 191,568 460,673l0 2577c-269,105 -460,367 -460,673 0,399 323,722 722,722 399,0 722,-323 722,-722 0,-306 -191,-568 -460,-673l0 -2577c9,-4 18,-7 27,-11l1485 1485 491 491c-39,89 -61,187 -61,290 0,399 323,722 722,722 399,0 722,-323 722,-722 0,-399 -323,-722 -722,-722 -103,0 -201,22 -290,61l-491 -491 -1485 -1485c39,-89 61,-187 61,-290 0,-399 -323,-722 -722,-722 -103,0 -201,22 -290,61l-337 -337 -370 -370 -1055 -1055 -423 -423 -1940 -1940 0 0 -371 0 0 371 0 0"/>
  <path class="fil5" d="M16104 15080c-74,-81 -160,-143 -258,-186 -98,-43 -204,-64 -319,-64 -196,0 -354,64 -473,191 -118,127 -177,295 -177,506 0,219 60,391 179,516 119,125 283,187 494,187 117,0 221,-22 313,-65 92,-44 172,-110 242,-198l0 554c-89,50 -184,87 -286,112 -101,25 -209,38 -323,38 -330,0 -599,-105 -807,-315 -208,-210 -312,-482 -312,-816 0,-339 108,-612 323,-819 216,-208 497,-312 845,-312 109,0 210,11 301,33 92,21 178,55 257,99l0 541zm2145 459c0,-195 -63,-361 -189,-497 -126,-136 -279,-203 -461,-203 -180,0 -334,67 -460,203 -126,136 -189,301 -189,497 0,195 63,361 189,497 126,136 280,203 460,203 180,0 334,-67 460,-203 126,-136 189,-301 189,-497zm-1808 -5c0,-154 30,-299 88,-435 58,-137 142,-259 251,-365 108,-105 233,-186 373,-242 141,-56 288,-84 441,-84 158,0 307,28 448,84 139,57 265,139 376,248 111,108 195,230 253,367 58,136 86,279 86,428 0,155 -29,301 -86,437 -57,136 -140,257 -250,362 -115,111 -243,195 -384,251 -140,57 -289,86 -444,86 -152,0 -299,-29 -439,-86 -141,-57 -266,-139 -376,-247 -111,-110 -195,-233 -253,-369 -58,-136 -86,-281 -86,-435zm3307 1050l-482 0 0 -2104 453 0 0 345c96,-147 205,-254 327,-322 122,-67 266,-101 432,-101 164,0 301,34 408,103 108,69 190,174 246,315 111,-145 229,-251 354,-318 125,-67 267,-100 427,-100 139,0 260,26 364,76 104,51 184,126 242,223 27,45 47,101 59,164 13,64 19,154 19,273l0 169 0 1275 -482 0 0 -1080c0,-282 -30,-469 -90,-558 -60,-89 -167,-134 -320,-134 -189,0 -324,61 -404,181 -81,120 -121,332 -121,633l0 958 -486 0 0 -1080c0,-261 -31,-441 -94,-541 -63,-101 -172,-151 -326,-151 -95,0 -181,21 -259,64 -79,43 -141,102 -187,177 -30,49 -50,109 -62,179 -11,71 -17,202 -17,393l0 958zm3976 0l-482 0 0 -2104 453 0 0 345c96,-147 205,-254 327,-322 122,-67 266,-101 432,-101 164,0 301,34 408,103 108,69 190,174 246,315 111,-145 229,-251 354,-318 125,-67 267,-100 427,-100 139,0 260,26 363,76 104,51 184,126 242,223 27,45 47,101 59,164 13,64 19,154 19,273l0 169 0 1275 -482 0 0 -1080c0,-282 -30,-469 -90,-558 -60,-89 -167,-134 -320,-134 -189,0 -324,61 -404,181 -81,120 -121,332 -121,633l0 958 -486 0 0 -1080c0,-261 -31,-441 -94,-541 -63,-101 -172,-151 -326,-151 -95,0 -181,21 -259,64 -79,43 -141,102 -187,177 -30,49 -50,109 -62,179 -11,71 -17,202 -17,393l0 958zm3453 -3012c0,-81 30,-151 90,-211 60,-59 131,-89 214,-89 86,0 158,29 214,86 57,57 86,129 86,214 0,86 -29,158 -86,217 -58,58 -130,88 -214,88 -83,0 -154,-30 -214,-90 -60,-60 -90,-131 -90,-214zm64 3012l0 -2104 482 0 0 2104 -482 0zm1282 0l0 -1681 -368 0 0 -423 368 0 0 -795 482 0 0 795 368 0 0 423 -368 0 0 1681 -482 0zm2717 0l0 -1681 -336 0 0 -559 336 0 0 -668 777 0 0 668 336 0 0 559 -336 0 0 1681 -777 0zm1463 -2940c0,-120 42,-221 128,-305 85,-84 187,-126 307,-126 124,0 228,42 311,124 84,83 126,185 126,307 0,123 -42,226 -128,312 -85,86 -188,129 -309,129 -119,0 -221,-44 -307,-131 -86,-87 -129,-190 -129,-310zm41 2940l0 -2240 791 0 0 2240 -791 0zm4362 0l0 -1223c0,-194 -24,-328 -72,-401 -48,-74 -132,-111 -251,-111 -148,0 -251,52 -309,154 -58,103 -86,313 -86,632l0 950 -763 0 0 -1223c0,-197 -23,-332 -71,-404 -47,-73 -129,-109 -248,-109 -148,0 -251,51 -310,152 -59,101 -89,313 -89,634l0 950 -768 0 0 -2240 777 0 0 389c93,-158 201,-275 323,-350 122,-75 266,-112 431,-112 182,0 331,35 447,105 116,70 199,176 250,317 87,-142 193,-248 319,-318 126,-70 274,-105 444,-105 135,0 253,23 354,67 101,45 186,113 254,204 55,70 93,154 117,248 23,95 34,248 34,461l0 49 0 1283 -782 0zm2886 -1409c-15,-127 -64,-229 -145,-307 -83,-77 -183,-116 -304,-116 -129,0 -232,35 -308,105 -76,70 -126,176 -152,317l909 0zm777 445l-1704 0c2,173 46,306 133,400 88,94 211,141 371,141 120,0 221,-23 304,-67 82,-45 145,-112 188,-201l594 239c-71,172 -197,304 -377,398 -181,93 -402,140 -664,140 -391,0 -704,-108 -940,-325 -236,-217 -354,-503 -354,-858 0,-349 118,-639 354,-870 236,-231 535,-346 895,-346 371,0 664,117 878,351 214,234 322,554 322,961l0 38z"/>
 </g>
</svg>
