<?xml version="1.0" encoding="UTF-8"?>
<!DOCTYPE svg PUBLIC "-//W3C//DTD SVG 1.1//EN" "http://www.w3.org/Graphics/SVG/1.1/DTD/svg11.dtd">
<!-- Creator: CorelDRAW 2017 -->
<svg xmlns="http://www.w3.org/2000/svg" xml:space="preserve" width="297mm" height="420mm" version="1.1" style="shape-rendering:geometricPrecision; text-rendering:geometricPrecision; image-rendering:optimizeQuality; fill-rule:evenodd; clip-rule:evenodd"
viewBox="0 0 29700 42000"
 xmlns:xlink="http://www.w3.org/1999/xlink">
 <defs>
  <style type="text/css">
   <![CDATA[
    .fil1 {fill:none}
    .fil0 {fill:white}
   ]]>
  </style>
 </defs>
 <g id="Layer_x0020_1">
  <metadata id="CorelCorpID_0Corel-Layer"/>
  <path class="fil0" d="M19158 22774l3659 0 0 4233 -4233 0 0 -3659 333 333c-60,137 -94,289 -94,449 0,617 500,1118 1118,1118 617,0 1118,-500 1118,-1118 0,-617 -500,-1118 -1118,-1118 -160,0 -312,34 -449,94l-333 -333z"/>
  <g id="_756682440">
   <path class="fil0" d="M8574 12191l10 0 3649 0 0 3659 -655 -655 -2998 -2998 -5 -5zm3084 4233l-3659 0 0 -3659 1571 1571 2087 2087zm-3659 -3659l0 0z"/>
   <g>
    <path class="fil0" d="M8574 12191l10 0 3649 0 0 3659 0 -3659 0 3659 0 -3659 -3659 0zm3084 4233l-3659 0 3659 0zm-3659 0l0 -3659 0 3659zm0 -3659l0 0z"/>
   </g>
  </g>
  <rect class="fil0" x="13291" y="12191" width="4233" height="4233"/>
  <rect class="fil0" x="18583" y="12191" width="4233" height="4233"/>
  <rect class="fil0" x="8000" y="17483" width="4233" height="4233"/>
  <path class="fil0" d="M13866 17483l3659 0 0 3659 -1093 -1093c60,-137 94,-289 94,-449 0,-617 -500,-1118 -1118,-1118 -160,0 -312,34 -449,94l-521 -521 -572 -572zm3084 4233l-1136 0 0 -1075c14,-6 29,-12 43,-18l1093 1093zm-1948 0l-1710 0 0 -3659 572 572 521 521c-60,137 -94,289 -94,449 0,474 295,879 711,1041l0 1075z"/>
  <rect class="fil0" x="18583" y="17483" width="4233" height="4233"/>
  <rect class="fil0" x="8000" y="22774" width="4233" height="4233"/>
  <path class="fil0" d="M13291 22774l1710 0 0 1854c-416,163 -711,568 -711,1041 0,617 500,1118 1118,1118 617,0 1118,-500 1118,-1118 0,-474 -295,-879 -711,-1041l0 -1854 1710 0 0 4233 -4233 0 0 -4233z"/>
  <path class="fil1" d="M8000 12766l1571 1571 2087 2087 1633 1633 572 572 521 521c-60,137 -94,289 -94,449 0,474 295,879 711,1041l0 3988c-416,163 -711,568 -711,1041 0,617 500,1118 1118,1118 617,0 1118,-500 1118,-1118 0,-474 -295,-879 -711,-1041l0 -3988c14,-6 29,-12 43,-18l2299 2299 760 760c-60,137 -94,289 -94,449 0,617 500,1118 1118,1118 617,0 1118,-500 1118,-1118 0,-617 -500,-1118 -1118,-1118 -160,0 -312,34 -449,94l-760 -760 -2299 -2299c60,-137 94,-289 94,-449 0,-617 -500,-1118 -1118,-1118 -160,0 -312,34 -449,94l-521 -521 -572 -572 -1633 -1633 -655 -655 -3003 -3003 0 0 -575 0 0 575 0 0"/>
 </g>
</svg>
