<?xml version="1.0" encoding="UTF-8"?>
<!DOCTYPE svg PUBLIC "-//W3C//DTD SVG 1.1//EN" "http://www.w3.org/Graphics/SVG/1.1/DTD/svg11.dtd">
<!-- Creator: CorelDRAW 2017 -->
<svg xmlns="http://www.w3.org/2000/svg" xml:space="preserve" width="297mm" height="420mm" version="1.1" style="shape-rendering:geometricPrecision; text-rendering:geometricPrecision; image-rendering:optimizeQuality; fill-rule:evenodd; clip-rule:evenodd"
viewBox="0 0 29700 42000"
 xmlns:xlink="http://www.w3.org/1999/xlink">
 <defs>
  <style type="text/css">
   <![CDATA[
    .fil1 {fill:none}
    .fil0 {fill:black}
    .fil2 {fill:black;fill-rule:nonzero}
   ]]>
  </style>
 </defs>
 <g id="Layer_x0020_1">
  <metadata id="CorelCorpID_0Corel-Layer"/>
  <path class="fil0" d="M19158 22774l3659 0 0 4233 -4233 0 0 -3659 333 333c-60,137 -94,289 -94,449 0,617 500,1118 1118,1118 617,0 1118,-500 1118,-1118 0,-617 -500,-1118 -1118,-1118 -160,0 -312,34 -449,94l-333 -333z"/>
  <g id="_833701672">
   <path class="fil0" d="M8574 12191l10 0 3649 0 0 3659 -655 -655 -2998 -2998 -5 -5zm3084 4233l-3659 0 0 -3659 1571 1571 2087 2087zm-3659 -3659l0 0z"/>
   <g>
    <path class="fil0" d="M8574 12191l10 0 3649 0 0 3659 0 -3659 0 3659 0 -3659 -3659 0zm3084 4233l-3659 0 3659 0zm-3659 0l0 -3659 0 3659zm0 -3659l0 0z"/>
   </g>
  </g>
  <rect class="fil0" x="13291" y="12191" width="4233" height="4233"/>
  <rect class="fil0" x="18583" y="12191" width="4233" height="4233"/>
  <rect class="fil0" x="8000" y="17483" width="4233" height="4233"/>
  <path class="fil0" d="M13866 17483l3659 0 0 3659 -1093 -1093c60,-137 94,-289 94,-449 0,-617 -500,-1118 -1118,-1118 -160,0 -312,34 -449,94l-521 -521 -572 -572zm3084 4233l-1136 0 0 -1075c14,-6 29,-12 43,-18l1093 1093zm-1948 0l-1710 0 0 -3659 572 572 521 521c-60,137 -94,289 -94,449 0,474 295,879 711,1041l0 1075z"/>
  <rect class="fil0" x="18583" y="17483" width="4233" height="4233"/>
  <rect class="fil0" x="8000" y="22774" width="4233" height="4233"/>
  <path class="fil0" d="M13291 22774l1710 0 0 1854c-416,163 -711,568 -711,1041 0,617 500,1118 1118,1118 617,0 1118,-500 1118,-1118 0,-474 -295,-879 -711,-1041l0 -1854 1710 0 0 4233 -4233 0 0 -4233z"/>
  <path class="fil1" d="M8000 12766l1571 1571 2087 2087 1633 1633 572 572 521 521c-60,137 -94,289 -94,449 0,474 295,879 711,1041l0 3988c-416,163 -711,568 -711,1041 0,617 500,1118 1118,1118 617,0 1118,-500 1118,-1118 0,-474 -295,-879 -711,-1041l0 -3988c14,-6 29,-12 43,-18l2299 2299 760 760c-60,137 -94,289 -94,449 0,617 500,1118 1118,1118 617,0 1118,-500 1118,-1118 0,-617 -500,-1118 -1118,-1118 -160,0 -312,34 -449,94l-760 -760 -2299 -2299c60,-137 94,-289 94,-449 0,-617 -500,-1118 -1118,-1118 -160,0 -312,34 -449,94l-521 -521 -572 -572 -1633 -1633 -655 -655 -3003 -3003 0 0 -575 0 0 575 0 0"/>
  <path class="fil2" d="M5289 31770c-65,-72 -141,-126 -228,-164 -87,-38 -180,-57 -281,-57 -173,0 -312,56 -417,168 -104,112 -156,261 -156,446 0,193 53,345 158,455 105,110 250,165 436,165 103,0 195,-19 276,-57 81,-39 152,-97 213,-175l0 489c-78,44 -162,77 -252,99 -89,22 -184,33 -285,33 -291,0 -528,-93 -712,-278 -184,-185 -275,-426 -275,-720 0,-299 95,-540 285,-723 190,-184 438,-275 746,-275 96,0 185,9 266,29 81,19 157,48 227,88l0 477zm1893 405c0,-172 -55,-319 -166,-438 -111,-120 -247,-179 -407,-179 -159,0 -295,59 -406,179 -112,120 -167,266 -167,438 0,172 55,319 167,438 112,120 247,179 406,179 159,0 295,-59 406,-179 112,-120 167,-266 167,-438zm-1596 -4c0,-136 26,-264 78,-384 51,-121 126,-229 222,-322 96,-93 205,-164 329,-214 124,-49 254,-74 390,-74 140,0 271,25 395,74 123,50 234,123 332,219 98,96 172,203 223,323 51,120 76,246 76,377 0,137 -25,266 -76,386 -50,120 -124,226 -220,319 -102,98 -214,172 -339,222 -124,50 -255,76 -392,76 -134,0 -264,-25 -388,-76 -124,-50 -235,-123 -331,-218 -98,-97 -172,-205 -223,-325 -51,-120 -76,-248 -76,-384zm2918 926l-425 0 0 -1856 400 0 0 305c85,-130 181,-224 289,-284 108,-59 235,-89 381,-89 145,0 265,30 360,91 96,61 168,154 217,278 98,-128 202,-222 313,-281 110,-59 236,-88 377,-88 122,0 229,23 321,67 92,45 162,111 213,197 24,40 41,89 52,145 11,56 17,136 17,241l0 149 0 1125 -425 0 0 -953c0,-249 -27,-414 -80,-492 -53,-79 -147,-118 -283,-118 -167,0 -286,53 -357,160 -71,106 -107,293 -107,559l0 845 -429 0 0 -953c0,-230 -27,-389 -83,-478 -55,-89 -152,-133 -287,-133 -84,0 -160,19 -229,57 -69,38 -124,90 -165,156 -26,43 -44,96 -55,158 -10,63 -15,178 -15,347l0 845zm3508 0l-425 0 0 -1856 400 0 0 305c85,-130 181,-224 289,-284 108,-59 235,-89 381,-89 145,0 265,30 360,91 96,61 168,154 217,278 98,-128 202,-222 313,-281 110,-59 236,-88 377,-88 122,0 229,23 321,67 92,45 162,111 213,197 24,40 41,89 52,145 11,56 17,136 17,241l0 149 0 1125 -425 0 0 -953c0,-249 -27,-414 -80,-492 -53,-79 -147,-118 -283,-118 -167,0 -286,53 -357,160 -71,106 -107,293 -107,559l0 845 -429 0 0 -953c0,-230 -27,-389 -83,-478 -55,-89 -152,-133 -287,-133 -84,0 -160,19 -229,57 -69,38 -124,90 -165,156 -26,43 -44,96 -55,158 -10,63 -15,178 -15,347l0 845zm3047 -2658c0,-72 27,-134 80,-186 53,-52 116,-78 189,-78 76,0 139,25 189,76 50,50 76,114 76,189 0,76 -25,140 -76,191 -51,51 -114,78 -188,78 -74,0 -136,-27 -189,-80 -53,-53 -80,-116 -80,-189zm56 2658l0 -1856 425 0 0 1856 -425 0zm1131 0l0 -1483 -325 0 0 -373 325 0 0 -702 425 0 0 702 325 0 0 373 -325 0 0 1483 -425 0zm2397 0l0 -1483 -297 0 0 -493 297 0 0 -589 686 0 0 589 297 0 0 493 -297 0 0 1483 -686 0zm1291 -2594c0,-106 37,-195 113,-269 75,-74 165,-112 271,-112 110,0 201,37 275,110 74,73 111,163 111,271 0,108 -37,200 -113,275 -75,76 -166,114 -273,114 -105,0 -195,-39 -271,-116 -76,-77 -114,-168 -114,-273zm36 2594l0 -1976 698 0 0 1976 -698 0zm3848 0l0 -1079c0,-171 -21,-289 -63,-354 -43,-65 -116,-98 -221,-98 -130,0 -221,45 -273,136 -51,91 -76,276 -76,557l0 838 -673 0 0 -1079c0,-174 -21,-293 -63,-356 -41,-64 -114,-96 -218,-96 -130,0 -222,45 -274,134 -52,90 -78,276 -78,559l0 838 -677 0 0 -1976 686 0 0 343c82,-140 177,-243 285,-309 108,-66 235,-99 380,-99 160,0 292,31 394,93 102,62 176,156 220,280 77,-126 170,-219 281,-281 111,-61 242,-92 392,-92 119,0 223,20 312,59 90,40 164,100 224,180 48,62 82,136 103,219 20,84 30,219 30,407l0 43 0 1132 -690 0zm2546 -1243c-13,-112 -56,-202 -128,-271 -73,-68 -162,-102 -268,-102 -114,0 -204,31 -272,93 -67,62 -112,156 -134,280l802 0zm686 393l-1503 0c1,152 41,270 118,353 77,83 186,124 327,124 106,0 195,-20 268,-59 72,-40 128,-99 166,-177l524 211c-63,152 -174,269 -333,351 -160,82 -355,124 -586,124 -345,0 -621,-96 -829,-287 -208,-192 -313,-444 -313,-757 0,-308 104,-564 312,-768 208,-204 472,-305 790,-305 327,0 586,103 775,309 189,206 284,489 284,848l0 33z"/>
 </g>
</svg>
